<svg xmlns="http://www.w3.org/2000/svg" xmlns:xlink="http://www.w3.org/1999/xlink" width="202" zoomAndPan="magnify" viewBox="0 0 151.5 30.000001" height="40" preserveAspectRatio="xMidYMid meet" version="1.2"><defs><clipPath id="c84e1343ab"><path d="M 6 6 L 32.683594 6 L 32.683594 25.5625 L 6 25.5625 Z M 6 6 "/></clipPath><clipPath id="140317c51b"><path d="M 5.105469 14 L 18 14 L 18 23 L 5.105469 23 Z M 5.105469 14 "/></clipPath><clipPath id="6746b31843"><path d="M 21 3.789062 L 25 3.789062 L 25 8 L 21 8 Z M 21 3.789062 "/></clipPath></defs><g id="759fff2181"><g style="fill:#3643ba;fill-opacity:1;"><g transform="translate(33.515151, 21.525391)"><path style="stroke:none" d="M 1.78125 -14.109375 L 6.171875 -14.109375 C 8.171875 -14.109375 9.617188 -13.820312 10.515625 -13.25 C 11.421875 -12.6875 11.875 -11.785156 11.875 -10.546875 C 11.875 -9.703125 11.675781 -9.007812 11.28125 -8.46875 C 10.882812 -7.925781 10.359375 -7.597656 9.703125 -7.484375 L 9.703125 -7.390625 C 10.597656 -7.191406 11.242188 -6.816406 11.640625 -6.265625 C 12.035156 -5.722656 12.234375 -5 12.234375 -4.09375 C 12.234375 -2.800781 11.769531 -1.796875 10.84375 -1.078125 C 9.914062 -0.359375 8.65625 0 7.0625 0 L 1.78125 0 Z M 4.765625 -8.515625 L 6.5 -8.515625 C 7.3125 -8.515625 7.898438 -8.640625 8.265625 -8.890625 C 8.628906 -9.148438 8.8125 -9.566406 8.8125 -10.140625 C 8.8125 -10.679688 8.613281 -11.066406 8.21875 -11.296875 C 7.820312 -11.535156 7.195312 -11.65625 6.34375 -11.65625 L 4.765625 -11.65625 Z M 4.765625 -6.140625 L 4.765625 -2.46875 L 6.71875 -2.46875 C 7.539062 -2.46875 8.144531 -2.625 8.53125 -2.9375 C 8.925781 -3.257812 9.125 -3.742188 9.125 -4.390625 C 9.125 -5.554688 8.289062 -6.140625 6.625 -6.140625 Z M 4.765625 -6.140625 "/></g><g transform="translate(46.798132, 21.525391)"><path style="stroke:none" d="M 1.78125 0 L 1.78125 -14.109375 L 4.765625 -14.109375 L 4.765625 0 Z M 1.78125 0 "/></g><g transform="translate(53.343089, 21.525391)"><path style="stroke:none" d="M 13.125 0 L 9.734375 0 L 6.03125 -5.9375 L 4.765625 -5.03125 L 4.765625 0 L 1.78125 0 L 1.78125 -14.109375 L 4.765625 -14.109375 L 4.765625 -7.65625 L 5.9375 -9.3125 L 9.765625 -14.109375 L 13.09375 -14.109375 L 8.171875 -7.859375 Z M 13.125 0 "/></g><g transform="translate(66.471617, 21.525391)"><path style="stroke:none" d="M 9.90625 0 L 1.78125 0 L 1.78125 -14.109375 L 9.90625 -14.109375 L 9.90625 -11.65625 L 4.765625 -11.65625 L 4.765625 -8.5625 L 9.546875 -8.5625 L 9.546875 -6.109375 L 4.765625 -6.109375 L 4.765625 -2.46875 L 9.90625 -2.46875 Z M 9.90625 0 "/></g><g transform="translate(77.543986, 21.525391)"><path style="stroke:none" d="M 10.109375 -3.921875 C 10.109375 -2.640625 9.648438 -1.632812 8.734375 -0.90625 C 7.816406 -0.175781 6.539062 0.1875 4.90625 0.1875 C 3.394531 0.1875 2.0625 -0.09375 0.90625 -0.65625 L 0.90625 -3.4375 C 1.851562 -3.007812 2.65625 -2.707031 3.3125 -2.53125 C 3.976562 -2.363281 4.585938 -2.28125 5.140625 -2.28125 C 5.796875 -2.28125 6.296875 -2.40625 6.640625 -2.65625 C 6.992188 -2.90625 7.171875 -3.28125 7.171875 -3.78125 C 7.171875 -4.050781 7.09375 -4.289062 6.9375 -4.5 C 6.78125 -4.71875 6.550781 -4.925781 6.25 -5.125 C 5.957031 -5.332031 5.351562 -5.65625 4.4375 -6.09375 C 3.570312 -6.5 2.921875 -6.882812 2.484375 -7.25 C 2.054688 -7.625 1.710938 -8.054688 1.453125 -8.546875 C 1.203125 -9.046875 1.078125 -9.628906 1.078125 -10.296875 C 1.078125 -11.546875 1.5 -12.523438 2.34375 -13.234375 C 3.1875 -13.953125 4.351562 -14.3125 5.84375 -14.3125 C 6.582031 -14.3125 7.285156 -14.222656 7.953125 -14.046875 C 8.617188 -13.878906 9.3125 -13.632812 10.03125 -13.3125 L 9.078125 -11 C 8.316406 -11.300781 7.691406 -11.515625 7.203125 -11.640625 C 6.710938 -11.765625 6.226562 -11.828125 5.75 -11.828125 C 5.1875 -11.828125 4.753906 -11.691406 4.453125 -11.421875 C 4.148438 -11.160156 4 -10.816406 4 -10.390625 C 4 -10.128906 4.054688 -9.898438 4.171875 -9.703125 C 4.296875 -9.503906 4.488281 -9.3125 4.75 -9.125 C 5.019531 -8.945312 5.65625 -8.617188 6.65625 -8.140625 C 7.976562 -7.515625 8.882812 -6.882812 9.375 -6.25 C 9.863281 -5.613281 10.109375 -4.835938 10.109375 -3.921875 Z M 10.109375 -3.921875 "/></g><g transform="translate(88.432942, 21.525391)"><path style="stroke:none" d="M 9.90625 0 L 1.78125 0 L 1.78125 -14.109375 L 9.90625 -14.109375 L 9.90625 -11.65625 L 4.765625 -11.65625 L 4.765625 -8.5625 L 9.546875 -8.5625 L 9.546875 -6.109375 L 4.765625 -6.109375 L 4.765625 -2.46875 L 9.90625 -2.46875 Z M 9.90625 0 "/></g><g transform="translate(99.50531, 21.525391)"><path style="stroke:none" d="M 4.765625 -7.84375 L 5.734375 -7.84375 C 6.679688 -7.84375 7.378906 -8 7.828125 -8.3125 C 8.273438 -8.632812 8.5 -9.132812 8.5 -9.8125 C 8.5 -10.476562 8.269531 -10.953125 7.8125 -11.234375 C 7.351562 -11.515625 6.640625 -11.65625 5.671875 -11.65625 L 4.765625 -11.65625 Z M 4.765625 -5.421875 L 4.765625 0 L 1.78125 0 L 1.78125 -14.109375 L 5.890625 -14.109375 C 7.804688 -14.109375 9.222656 -13.757812 10.140625 -13.0625 C 11.066406 -12.363281 11.53125 -11.304688 11.53125 -9.890625 C 11.53125 -9.054688 11.300781 -8.316406 10.84375 -7.671875 C 10.382812 -7.023438 9.734375 -6.515625 8.890625 -6.140625 C 11.015625 -2.972656 12.398438 -0.925781 13.046875 0 L 9.734375 0 L 6.359375 -5.421875 Z M 4.765625 -5.421875 "/></g><g transform="translate(112.556612, 21.525391)"><path style="stroke:none" d="M 9.828125 -14.109375 L 12.84375 -14.109375 L 8.046875 0 L 4.78125 0 L 0 -14.109375 L 3.015625 -14.109375 L 5.671875 -5.71875 C 5.816406 -5.21875 5.96875 -4.632812 6.125 -3.96875 C 6.289062 -3.3125 6.390625 -2.859375 6.421875 -2.609375 C 6.492188 -3.203125 6.738281 -4.238281 7.15625 -5.71875 Z M 9.828125 -14.109375 "/></g><g transform="translate(125.405193, 21.525391)"><path style="stroke:none" d="M 1.78125 0 L 1.78125 -14.109375 L 4.765625 -14.109375 L 4.765625 0 Z M 1.78125 0 "/></g><g transform="translate(131.95015, 21.525391)"><path style="stroke:none" d="M 10.109375 -3.921875 C 10.109375 -2.640625 9.648438 -1.632812 8.734375 -0.90625 C 7.816406 -0.175781 6.539062 0.1875 4.90625 0.1875 C 3.394531 0.1875 2.0625 -0.09375 0.90625 -0.65625 L 0.90625 -3.4375 C 1.851562 -3.007812 2.65625 -2.707031 3.3125 -2.53125 C 3.976562 -2.363281 4.585938 -2.28125 5.140625 -2.28125 C 5.796875 -2.28125 6.296875 -2.40625 6.640625 -2.65625 C 6.992188 -2.90625 7.171875 -3.28125 7.171875 -3.78125 C 7.171875 -4.050781 7.09375 -4.289062 6.9375 -4.5 C 6.78125 -4.71875 6.550781 -4.925781 6.25 -5.125 C 5.957031 -5.332031 5.351562 -5.65625 4.4375 -6.09375 C 3.570312 -6.5 2.921875 -6.882812 2.484375 -7.25 C 2.054688 -7.625 1.710938 -8.054688 1.453125 -8.546875 C 1.203125 -9.046875 1.078125 -9.628906 1.078125 -10.296875 C 1.078125 -11.546875 1.5 -12.523438 2.34375 -13.234375 C 3.1875 -13.953125 4.351562 -14.3125 5.84375 -14.3125 C 6.582031 -14.3125 7.285156 -14.222656 7.953125 -14.046875 C 8.617188 -13.878906 9.3125 -13.632812 10.03125 -13.3125 L 9.078125 -11 C 8.316406 -11.300781 7.691406 -11.515625 7.203125 -11.640625 C 6.710938 -11.765625 6.226562 -11.828125 5.75 -11.828125 C 5.1875 -11.828125 4.753906 -11.691406 4.453125 -11.421875 C 4.148438 -11.160156 4 -10.816406 4 -10.390625 C 4 -10.128906 4.054688 -9.898438 4.171875 -9.703125 C 4.296875 -9.503906 4.488281 -9.3125 4.75 -9.125 C 5.019531 -8.945312 5.65625 -8.617188 6.65625 -8.140625 C 7.976562 -7.515625 8.882812 -6.882812 9.375 -6.25 C 9.863281 -5.613281 10.109375 -4.835938 10.109375 -3.921875 Z M 10.109375 -3.921875 "/></g></g><g clip-rule="nonzero" clip-path="url(#c84e1343ab)"><path style=" stroke:none;fill-rule:nonzero;fill:#3643ba;fill-opacity:1;" d="M 31.972656 18.988281 C 31.632812 18.097656 31.050781 17.371094 30.3125 16.863281 C 29.535156 16.277344 28.574219 15.929688 27.527344 15.929688 C 27.082031 15.929688 26.65625 15.992188 26.25 16.105469 C 26.230469 16.078125 26.210938 16.042969 26.195312 16 C 25.988281 15.585938 25.339844 13.601562 24.957031 13.59375 C 24.746094 13.59375 24.691406 13.464844 24.65625 13.296875 C 25.492188 13.316406 26.460938 13.683594 27.226562 13.183594 C 27.527344 12.972656 27.460938 12.472656 27.097656 12.378906 C 24.945312 11.847656 23.332031 10.542969 22.425781 8.511719 C 21.195312 6.253906 18.105469 6.253906 15.933594 7.0625 C 13.835938 7.839844 12.996094 9.597656 12.875 10.058594 C 14.054688 8.492188 15.4375 7.300781 17.5 7.238281 C 19.074219 7.144531 20.238281 7.601562 20.871094 9.160156 C 21.714844 11.054688 23.710938 11.988281 25.597656 12.546875 C 24.878906 12.675781 23.421875 12.0625 23.988281 13.390625 C 24.082031 13.578125 24.011719 13.628906 23.828125 13.664062 C 23.085938 13.816406 22.347656 13.980469 21.605469 14.140625 C 21.507812 14.164062 21.402344 14.167969 21.433594 14.324219 C 21.460938 14.460938 21.535156 14.476562 21.652344 14.464844 C 22.523438 14.398438 23.367188 14.351562 24.25 14.304688 C 22.429688 16.191406 20.449219 17.957031 18.59375 19.828125 C 18.53125 19.886719 18.492188 20.003906 18.351562 19.933594 C 17.742188 19.625 17.21875 19.753906 16.757812 20.253906 C 16.617188 20.410156 16.40625 20.324219 16.230469 20.304688 C 16.144531 20.296875 16.148438 20.144531 16.136719 20.054688 C 16.097656 19.769531 16.035156 19.496094 15.953125 19.234375 C 15.382812 17.324219 13.609375 15.933594 11.511719 15.933594 C 9.03125 15.933594 7.003906 17.882812 6.886719 20.335938 C 6.804688 21.15625 6.964844 22.003906 7.441406 22.773438 C 8.226562 24.21875 9.753906 25.195312 11.511719 25.195312 C 13.804688 25.195312 15.707031 23.535156 16.078125 21.351562 C 16.101562 21.3125 16.144531 21.289062 16.214844 21.292969 C 16.339844 21.300781 16.445312 21.289062 16.507812 21.457031 C 17.019531 22.9375 19.214844 22.347656 18.972656 20.8125 C 18.945312 20.632812 19 20.539062 19.121094 20.429688 C 20.894531 18.855469 22.6875 17.300781 24.472656 15.742188 C 24.605469 15.625 24.683594 15.578125 24.765625 15.792969 C 24.859375 16.027344 24.988281 16.25 25.113281 16.464844 C 25.140625 16.507812 25.15625 16.542969 25.167969 16.578125 C 24.472656 16.988281 23.894531 17.574219 23.5 18.277344 C 22.457031 19.910156 22.625 22.035156 23.988281 23.566406 C 24.011719 23.589844 24.035156 23.617188 24.058594 23.640625 C 24.90625 24.597656 26.144531 25.199219 27.523438 25.199219 C 28.839844 25.199219 30.035156 24.648438 30.875 23.761719 C 32.070312 22.664062 32.671875 20.960938 31.972656 18.988281 Z M 11.457031 21.078125 C 12.5625 21.132812 13.664062 21.179688 14.765625 21.234375 C 14.808594 21.234375 14.84375 21.234375 14.875 21.238281 C 14.632812 22.472656 13.742188 23.476562 12.570312 23.871094 C 12.15625 23.988281 11.714844 24.039062 11.257812 24.003906 C 10.398438 23.960938 9.695312 23.660156 9.164062 23.210938 C 9.144531 23.195312 9.125 23.175781 9.105469 23.160156 C 9.097656 23.152344 9.085938 23.144531 9.078125 23.136719 C 8.964844 23.03125 8.855469 22.914062 8.757812 22.792969 C 8.75 22.789062 8.746094 22.78125 8.742188 22.777344 C 8.71875 22.75 8.699219 22.722656 8.679688 22.699219 C 8.207031 22.082031 7.957031 21.3125 7.949219 20.546875 C 7.957031 19.371094 8.542969 18.328125 9.4375 17.699219 C 9.792969 17.472656 10.214844 17.296875 10.703125 17.199219 C 11.4375 17.035156 12.175781 17.101562 12.832031 17.351562 C 14.003906 17.859375 14.84375 18.988281 14.933594 20.324219 C 14.34375 20.316406 12.039062 20.324219 11.472656 20.328125 C 11.21875 20.328125 11.046875 20.46875 11.035156 20.679688 C 11.023438 20.917969 11.171875 21.066406 11.457031 21.078125 Z M 28.507812 23.902344 C 28.449219 23.917969 28.394531 23.933594 28.335938 23.945312 C 26.074219 24.445312 24.265625 22.753906 23.984375 20.898438 C 23.972656 20.789062 23.96875 20.675781 23.96875 20.5625 C 23.96875 19.675781 24.296875 18.871094 24.839844 18.253906 C 25.046875 18.046875 25.292969 17.855469 25.582031 17.6875 C 25.722656 17.609375 25.792969 17.621094 25.871094 17.773438 C 26.371094 18.710938 26.925781 19.617188 27.375 20.582031 C 27.375 20.585938 27.375 20.585938 27.378906 20.589844 C 27.507812 20.859375 27.921875 20.761719 27.914062 20.460938 C 27.90625 19.714844 26.949219 18.101562 26.636719 17.398438 C 26.570312 17.25 26.582031 17.203125 26.753906 17.175781 C 27.265625 17.074219 27.742188 17.070312 28.179688 17.140625 C 29.769531 17.46875 30.964844 18.875 30.964844 20.566406 C 30.960938 22.132812 29.929688 23.460938 28.507812 23.902344 Z M 28.507812 23.902344 "/></g><path style=" stroke:none;fill-rule:nonzero;fill:#3643ba;fill-opacity:1;" d="M 13.664062 10.308594 C 11.941406 13.296875 15.65625 13.285156 17.554688 13.949219 C 17.964844 14.097656 19.425781 14.453125 18.90625 15.074219 C 18.042969 16.226562 17.089844 17.3125 16.175781 18.425781 C 16.050781 18.570312 16.011719 18.6875 16.105469 18.871094 C 16.242188 19.140625 16.316406 19.4375 16.367188 19.789062 C 17.652344 18.617188 18.867188 17.375 20.089844 16.144531 C 20.679688 15.53125 21.667969 14.601562 20.871094 13.777344 C 19.117188 11.804688 16.660156 10.164062 13.945312 10.148438 C 13.820312 10.160156 13.742188 10.195312 13.664062 10.308594 Z M 13.664062 10.308594 "/><g clip-rule="nonzero" clip-path="url(#140317c51b)"><path style=" stroke:none;fill-rule:nonzero;fill:#3643ba;fill-opacity:1;" d="M 8.351562 16.898438 C 10.910156 15.015625 13.894531 14.921875 16.84375 16.222656 C 17.015625 16.300781 17 16.320312 17.015625 16.171875 C 16.386719 15.5 15.890625 14.679688 14.871094 14.5 C 12.414062 14.066406 10.09375 14.945312 10.03125 14.96875 C 7.453125 15.972656 5.347656 18.285156 5.1875 21.128906 C 5.203125 21.21875 5.117188 22.320312 5.28125 22.046875 C 5.308594 21.902344 6.539062 18.238281 8.351562 16.898438 Z M 8.351562 16.898438 "/></g><path style=" stroke:none;fill-rule:nonzero;fill:#3643ba;fill-opacity:1;" d="M 17.753906 16.152344 C 18.066406 15.832031 18.867188 14.980469 18.609375 14.820312 C 17.914062 14.371094 15.609375 13.859375 15.238281 13.78125 C 15.371094 14.078125 17.144531 15.417969 17.574219 16.089844 C 17.625 16.171875 17.660156 16.25 17.753906 16.152344 Z M 17.753906 16.152344 "/><path style=" stroke:none;fill-rule:nonzero;fill:#3643ba;fill-opacity:1;" d="M 15.808594 16.105469 C 15.605469 16.417969 15.378906 16.726562 15.148438 17.027344 C 15.054688 17.152344 15.066406 17.21875 15.179688 17.316406 C 15.417969 17.535156 15.605469 17.796875 15.75 18.085938 C 15.804688 18.199219 15.839844 18.21875 15.9375 18.117188 C 16.363281 17.652344 16.757812 17.15625 17.144531 16.660156 C 17.4375 16.386719 16.246094 16.144531 16.0625 16.046875 C 15.976562 16.019531 15.894531 15.976562 15.808594 16.105469 Z M 15.808594 16.105469 "/><path style=" stroke:none;fill-rule:nonzero;fill:#3643ba;fill-opacity:1;" d="M 23.253906 9.257812 C 24.222656 10.625 25.433594 11.828125 27.085938 12.164062 C 25.167969 11.390625 23.15625 9.117188 23.253906 9.257812 Z M 23.253906 9.257812 "/><path style=" stroke:none;fill-rule:nonzero;fill:#3643ba;fill-opacity:1;" d="M 14.023438 9.855469 C 15.40625 9.871094 16.640625 10.382812 17.859375 11 C 18.101562 9.648438 19.722656 9.726562 20.808594 9.808594 C 19.421875 6.34375 15.804688 7.308594 13.996094 9.828125 C 13.992188 9.839844 13.992188 9.851562 13.984375 9.863281 C 14 9.863281 14.011719 9.859375 14.023438 9.855469 Z M 14.023438 9.855469 "/><g clip-rule="nonzero" clip-path="url(#6746b31843)"><path style=" stroke:none;fill-rule:nonzero;fill:#3643ba;fill-opacity:1;" d="M 23.25 3.953125 C 23.472656 3.972656 23.675781 4.035156 23.871094 4.140625 C 24.066406 4.242188 24.230469 4.378906 24.371094 4.550781 C 24.511719 4.722656 24.613281 4.910156 24.675781 5.121094 C 24.738281 5.332031 24.761719 5.546875 24.738281 5.765625 C 24.71875 5.984375 24.65625 6.191406 24.550781 6.382812 C 24.445312 6.578125 24.308594 6.746094 24.140625 6.882812 C 23.96875 7.023438 23.78125 7.125 23.570312 7.1875 C 23.359375 7.253906 23.144531 7.273438 22.925781 7.253906 C 22.707031 7.230469 22.5 7.167969 22.304688 7.0625 C 22.113281 6.960938 21.945312 6.824219 21.804688 6.652344 C 21.667969 6.484375 21.566406 6.292969 21.5 6.082031 C 21.4375 5.871094 21.417969 5.65625 21.4375 5.4375 C 21.460938 5.21875 21.523438 5.011719 21.625 4.820312 C 21.730469 4.625 21.867188 4.460938 22.035156 4.320312 C 22.207031 4.179688 22.398438 4.078125 22.609375 4.015625 C 22.820312 3.949219 23.03125 3.929688 23.25 3.953125 Z M 23.25 3.953125 Z"/></g></svg>
