<svg xmlns="http://www.w3.org/2000/svg" xmlns:xlink="http://www.w3.org/1999/xlink" width="202" zoomAndPan="magnify" viewBox="0 0 151.5 30.000001" height="40" preserveAspectRatio="xMidYMid meet" version="1.2"><defs><clipPath id="6ea44d92ad"><path d="M 2.203125 0 L 148.816406 0 L 148.816406 29.03125 L 2.203125 29.03125 Z M 2.203125 0 "/></clipPath><clipPath id="162f3e6609"><path d="M 5.414062 2.910156 L 37.773438 2.910156 L 37.773438 25.828125 L 5.414062 25.828125 Z M 5.414062 2.910156 "/></clipPath><clipPath id="ddc88db55b"><path d="M 4.601562 21 L 8 21 L 8 23 L 4.601562 23 Z M 4.601562 21 "/></clipPath><clipPath id="34e8392a10"><rect x="0" width="110" y="0" height="29"/></clipPath></defs><g id="34f415e9e7"><g clip-rule="nonzero" clip-path="url(#6ea44d92ad)"><path style=" stroke:none;fill-rule:nonzero;fill:#ffffff;fill-opacity:1;" d="M 2.203125 0 L 148.816406 0 L 148.816406 29.03125 L 2.203125 29.03125 Z M 2.203125 0 "/><path style=" stroke:none;fill-rule:nonzero;fill:#ffffff;fill-opacity:1;" d="M 2.203125 0 L 148.816406 0 L 148.816406 29.03125 L 2.203125 29.03125 Z M 2.203125 0 "/></g><g clip-rule="nonzero" clip-path="url(#162f3e6609)"><path style=" stroke:none;fill-rule:evenodd;fill:#3643ba;fill-opacity:1;" d="M 37.765625 19.027344 C 37.730469 18.347656 37.566406 17.734375 37.335938 17.226562 C 37.15625 16.839844 36.9375 16.5 36.679688 16.199219 C 36.421875 15.898438 36.113281 15.628906 35.761719 15.390625 C 31.175781 12.273438 25.984375 17.292969 22.035156 20.28125 C 19.710938 22.039062 16.4375 24.523438 13.941406 22.839844 C 13.582031 22.597656 13.269531 22.269531 13.058594 21.871094 C 12.867188 21.507812 12.753906 21.082031 12.746094 20.59375 C 12.742188 20.207031 12.8125 19.824219 12.9375 19.460938 C 13.074219 19.058594 13.273438 18.695312 13.492188 18.402344 C 13.65625 18.183594 13.839844 17.988281 14.042969 17.808594 C 14.261719 17.617188 14.492188 17.453125 14.726562 17.320312 C 16.675781 16.214844 18.449219 16.796875 19.933594 17.839844 C 18.3125 19.046875 15.824219 20.207031 14.292969 21.300781 C 22.351562 18.84375 27.878906 18.210938 21.867188 10.867188 C 23.679688 9.464844 24.605469 9.449219 26.785156 9.089844 C 27.476562 14.984375 29.027344 13.210938 35.023438 12.832031 C 29.78125 12.074219 28.652344 12.949219 29.199219 8.820312 C 29.273438 8.253906 29.378906 7.824219 29.386719 7.460938 C 29.660156 7.632812 29.996094 7.734375 30.367188 7.734375 C 31.453125 7.734375 32.460938 6.886719 32.683594 5.820312 C 35.476562 3.886719 29.988281 1.191406 27.511719 4.386719 L 28.953125 4.789062 C 28.78125 5.0625 28.664062 5.367188 28.617188 5.6875 C 28.59375 5.855469 28.589844 6.015625 28.605469 6.171875 C 28.582031 6.15625 28.558594 6.140625 28.53125 6.121094 C 26.988281 5.121094 24.453125 5.214844 22.3125 6.054688 L 15.847656 6.054688 C 15.441406 6.054688 15.113281 6.382812 15.113281 6.785156 C 15.113281 7.191406 15.441406 7.519531 15.847656 7.519531 L 19.878906 7.519531 C 19.378906 7.980469 18.980469 8.503906 18.738281 9.074219 L 15.757812 9.074219 C 15.355469 9.074219 15.023438 9.40625 15.023438 9.808594 C 15.023438 10.210938 15.355469 10.542969 15.757812 10.542969 L 18.46875 10.542969 C 18.492188 10.984375 18.601562 11.445312 18.816406 11.917969 L 12.601562 11.917969 C 12.199219 11.917969 11.867188 12.25 11.867188 12.652344 C 11.867188 13.054688 12.199219 13.386719 12.601562 13.386719 L 19.792969 13.386719 C 20.078125 13.710938 20.414062 14.042969 20.804688 14.375 C 21.425781 14.90625 21.617188 15.429688 21.507812 15.945312 C 19.832031 14.726562 17.777344 13.910156 15.3125 14.71875 L 7.933594 14.71875 C 7.53125 14.71875 7.203125 15.050781 7.203125 15.453125 C 7.203125 15.855469 7.53125 16.1875 7.933594 16.1875 L 12.679688 16.1875 C 12.675781 16.191406 12.667969 16.195312 12.664062 16.199219 C 12.320312 16.5 12.003906 16.839844 11.714844 17.226562 C 11.582031 17.402344 11.460938 17.589844 11.339844 17.785156 L 6.15625 17.785156 C 5.753906 17.785156 5.421875 18.117188 5.421875 18.519531 C 5.421875 18.921875 5.753906 19.253906 6.15625 19.253906 L 10.695312 19.253906 C 10.539062 19.78125 10.449219 20.351562 10.457031 20.941406 C 10.457031 20.988281 10.460938 21.03125 10.460938 21.074219 L 8.511719 21.074219 C 8.109375 21.074219 7.777344 21.40625 7.777344 21.808594 C 7.777344 22.210938 8.109375 22.542969 8.511719 22.542969 L 10.734375 22.542969 C 10.808594 22.75 10.894531 22.949219 10.992188 23.136719 C 11.359375 23.824219 11.875 24.375 12.472656 24.78125 C 20.074219 30.089844 28.019531 13.277344 34.292969 17.320312 C 34.492188 17.453125 34.675781 17.617188 34.839844 17.808594 C 34.992188 17.988281 35.117188 18.183594 35.21875 18.402344 C 35.355469 18.695312 35.449219 19.058594 35.46875 19.460938 C 35.488281 19.824219 35.449219 20.207031 35.335938 20.59375 C 35.191406 21.082031 34.949219 21.507812 34.65625 21.871094 C 34.328125 22.269531 33.925781 22.597656 33.492188 22.839844 C 30.59375 24.480469 28.085938 22.167969 26.28125 20.421875 L 24.308594 21.90625 C 26.867188 24.382812 30.03125 27.253906 34.40625 24.78125 C 35.121094 24.375 35.796875 23.824219 36.359375 23.136719 C 36.867188 22.511719 37.277344 21.777344 37.527344 20.941406 C 37.726562 20.265625 37.796875 19.617188 37.765625 19.027344 "/></g><g clip-rule="nonzero" clip-path="url(#ddc88db55b)"><path style=" stroke:none;fill-rule:evenodd;fill:#3643ba;fill-opacity:1;" d="M 6.316406 21.074219 L 5.332031 21.074219 C 4.929688 21.074219 4.601562 21.40625 4.601562 21.808594 C 4.601562 22.210938 4.929688 22.542969 5.332031 22.542969 L 6.316406 22.542969 C 6.71875 22.542969 7.050781 22.210938 7.050781 21.808594 C 7.050781 21.40625 6.71875 21.074219 6.316406 21.074219 "/></g><path style=" stroke:none;fill-rule:evenodd;fill:#3643ba;fill-opacity:1;" d="M 9.199219 13.386719 L 10.183594 13.386719 C 10.585938 13.386719 10.917969 13.054688 10.917969 12.652344 C 10.917969 12.25 10.585938 11.917969 10.183594 11.917969 L 9.199219 11.917969 C 8.796875 11.917969 8.46875 12.25 8.46875 12.652344 C 8.46875 13.054688 8.796875 13.386719 9.199219 13.386719 "/><path style=" stroke:none;fill-rule:evenodd;fill:#3643ba;fill-opacity:1;" d="M 12.402344 10.542969 L 13.382812 10.542969 C 13.785156 10.542969 14.117188 10.210938 14.117188 9.808594 C 14.117188 9.40625 13.785156 9.074219 13.382812 9.074219 L 12.402344 9.074219 C 11.996094 9.074219 11.667969 9.40625 11.667969 9.808594 C 11.667969 10.210938 11.996094 10.542969 12.402344 10.542969 "/><g transform="matrix(1,0,0,1,37,0.000000000000005692)"><g clip-path="url(#34e8392a10)"><g style="fill:#000000;fill-opacity:1;"><g transform="translate(1.964313, 21.51603)"><path style="stroke:none" d="M 1.78125 -14.109375 L 6.171875 -14.109375 C 8.171875 -14.109375 9.617188 -13.820312 10.515625 -13.25 C 11.421875 -12.6875 11.875 -11.785156 11.875 -10.546875 C 11.875 -9.703125 11.675781 -9.007812 11.28125 -8.46875 C 10.882812 -7.925781 10.359375 -7.597656 9.703125 -7.484375 L 9.703125 -7.390625 C 10.597656 -7.191406 11.242188 -6.816406 11.640625 -6.265625 C 12.035156 -5.722656 12.234375 -5 12.234375 -4.09375 C 12.234375 -2.800781 11.769531 -1.796875 10.84375 -1.078125 C 9.914062 -0.359375 8.65625 0 7.0625 0 L 1.78125 0 Z M 4.765625 -8.515625 L 6.5 -8.515625 C 7.3125 -8.515625 7.898438 -8.640625 8.265625 -8.890625 C 8.628906 -9.148438 8.8125 -9.566406 8.8125 -10.140625 C 8.8125 -10.679688 8.613281 -11.066406 8.21875 -11.296875 C 7.820312 -11.535156 7.195312 -11.65625 6.34375 -11.65625 L 4.765625 -11.65625 Z M 4.765625 -6.140625 L 4.765625 -2.46875 L 6.71875 -2.46875 C 7.539062 -2.46875 8.144531 -2.625 8.53125 -2.9375 C 8.925781 -3.257812 9.125 -3.742188 9.125 -4.390625 C 9.125 -5.554688 8.289062 -6.140625 6.625 -6.140625 Z M 4.765625 -6.140625 "/></g><g transform="translate(15.247294, 21.51603)"><path style="stroke:none" d="M 1.78125 0 L 1.78125 -14.109375 L 4.765625 -14.109375 L 4.765625 0 Z M 1.78125 0 "/></g><g transform="translate(21.792251, 21.51603)"><path style="stroke:none" d="M 13.125 0 L 9.734375 0 L 6.03125 -5.9375 L 4.765625 -5.03125 L 4.765625 0 L 1.78125 0 L 1.78125 -14.109375 L 4.765625 -14.109375 L 4.765625 -7.65625 L 5.9375 -9.3125 L 9.765625 -14.109375 L 13.09375 -14.109375 L 8.171875 -7.859375 Z M 13.125 0 "/></g><g transform="translate(34.920779, 21.51603)"><path style="stroke:none" d="M 9.90625 0 L 1.78125 0 L 1.78125 -14.109375 L 9.90625 -14.109375 L 9.90625 -11.65625 L 4.765625 -11.65625 L 4.765625 -8.5625 L 9.546875 -8.5625 L 9.546875 -6.109375 L 4.765625 -6.109375 L 4.765625 -2.46875 L 9.90625 -2.46875 Z M 9.90625 0 "/></g><g transform="translate(45.993148, 21.51603)"><path style="stroke:none" d="M 4.765625 -7.46875 L 5.75 -7.46875 C 6.664062 -7.46875 7.351562 -7.648438 7.8125 -8.015625 C 8.269531 -8.378906 8.5 -8.910156 8.5 -9.609375 C 8.5 -10.304688 8.304688 -10.820312 7.921875 -11.15625 C 7.546875 -11.488281 6.945312 -11.65625 6.125 -11.65625 L 4.765625 -11.65625 Z M 11.53125 -9.703125 C 11.53125 -8.191406 11.050781 -7.03125 10.09375 -6.21875 C 9.144531 -5.414062 7.796875 -5.015625 6.046875 -5.015625 L 4.765625 -5.015625 L 4.765625 0 L 1.78125 0 L 1.78125 -14.109375 L 6.28125 -14.109375 C 7.988281 -14.109375 9.289062 -13.738281 10.1875 -13 C 11.082031 -12.269531 11.53125 -11.171875 11.53125 -9.703125 Z M 11.53125 -9.703125 "/></g><g transform="translate(58.40733, 21.51603)"><path style="stroke:none" d="M 14.578125 -7.078125 C 14.578125 -4.742188 14 -2.945312 12.84375 -1.6875 C 11.6875 -0.4375 10.023438 0.1875 7.859375 0.1875 C 5.703125 0.1875 4.046875 -0.4375 2.890625 -1.6875 C 1.734375 -2.945312 1.15625 -4.75 1.15625 -7.09375 C 1.15625 -9.4375 1.734375 -11.226562 2.890625 -12.46875 C 4.046875 -13.707031 5.710938 -14.328125 7.890625 -14.328125 C 10.054688 -14.328125 11.710938 -13.703125 12.859375 -12.453125 C 14.003906 -11.210938 14.578125 -9.421875 14.578125 -7.078125 Z M 4.28125 -7.078125 C 4.28125 -5.492188 4.578125 -4.300781 5.171875 -3.5 C 5.773438 -2.707031 6.671875 -2.3125 7.859375 -2.3125 C 10.253906 -2.3125 11.453125 -3.898438 11.453125 -7.078125 C 11.453125 -10.253906 10.265625 -11.84375 7.890625 -11.84375 C 6.691406 -11.84375 5.789062 -11.441406 5.1875 -10.640625 C 4.582031 -9.835938 4.28125 -8.648438 4.28125 -7.078125 Z M 4.28125 -7.078125 "/></g><g transform="translate(74.142257, 21.51603)"><path style="stroke:none" d="M 1.78125 0 L 1.78125 -14.109375 L 4.765625 -14.109375 L 4.765625 0 Z M 1.78125 0 "/></g><g transform="translate(80.687214, 21.51603)"><path style="stroke:none" d="M 14.296875 0 L 10.484375 0 L 4.359375 -10.671875 L 4.265625 -10.671875 C 4.390625 -8.785156 4.453125 -7.441406 4.453125 -6.640625 L 4.453125 0 L 1.78125 0 L 1.78125 -14.109375 L 5.546875 -14.109375 L 11.671875 -3.546875 L 11.75 -3.546875 C 11.644531 -5.378906 11.59375 -6.675781 11.59375 -7.4375 L 11.59375 -14.109375 L 14.296875 -14.109375 Z M 14.296875 0 "/></g><g transform="translate(96.760007, 21.51603)"><path style="stroke:none" d="M 7.21875 0 L 4.234375 0 L 4.234375 -11.625 L 0.390625 -11.625 L 0.390625 -14.109375 L 11.046875 -14.109375 L 11.046875 -11.625 L 7.21875 -11.625 Z M 7.21875 0 "/></g></g></g></g></g></svg>