<svg width="24" height="24" viewBox="0 0 24 24" fill="none" xmlns="http://www.w3.org/2000/svg">
	<path fill-rule="evenodd" clip-rule="evenodd" d="M12 22c5.523 0 10-4.477 10-10S17.523 2 12 2 2 6.477 2 12c0 1.6.376 3.112 1.043 4.453.178.356.237.763.134 1.148l-.595 2.226c-.258.966.626 1.85 1.593 1.592l2.226-.595a1.5 1.5 0 0 1 1.148.134A9.96 9.96 0 0 0 12 22Zm-4-8.75a.75.75 0 0 0 0 1.5h5.5a.75.75 0 0 0 0-1.5H8Zm-.75-2.75A.75.75 0 0 1 8 9.75h8a.75.75 0 0 1 0 1.5H8a.75.75 0 0 1-.75-.75Z" fill="currentColor" />
</svg>